<svg xmlns="http://www.w3.org/2000/svg" xmlns:xlink="http://www.w3.org/1999/xlink" width="150" height="23.383" viewBox="0 0 150 23.383">
  <defs>
    <clipPath id="clip-path">
      <rect id="Rectangle_67" data-name="Rectangle 67" width="150" height="23.383" fill="#fff"/>
    </clipPath>
  </defs>
  <g id="Group_136" data-name="Group 136" transform="translate(0 0)">
    <g id="Group_127" data-name="Group 127" transform="translate(0 0)" clip-path="url(#clip-path)">
      <path id="Path_781" data-name="Path 781" d="M6.9,10.691a2.218,2.218,0,0,1,0-3l3.872-3.872A2.237,2.237,0,0,0,7.613.655L.7,7.566C.687,7.58.669,7.59.654,7.6a2.249,2.249,0,0,0,0,3.172c.015.015.033.025.048.039l6.911,6.911a2.237,2.237,0,0,0,3.163-3.163Z" transform="translate(0 0)" fill="#fff"/>
      <path id="Path_782" data-name="Path 782" d="M29.721,20.8a2.218,2.218,0,0,0,0-3l-3.872-3.872a2.237,2.237,0,1,1,3.163-3.163l6.911,6.911c.015.014.033.024.048.039a2.249,2.249,0,0,1,0,3.172c-.015.015-.033.025-.048.039l-6.911,6.911a2.237,2.237,0,1,1-3.163-3.163Z" transform="translate(-12.732 -5.11)" fill="#fff"/>
      <path id="Path_783" data-name="Path 783" d="M64.518,19.451a4.165,4.165,0,0,1,.921,2.843v5.328H62.245v-4.9a1.761,1.761,0,0,0-.408-1.23,1.4,1.4,0,0,0-1.092-.448,1.441,1.441,0,0,0-1.124.448,1.761,1.761,0,0,0-.408,1.23v4.9H56.021V15.565h3.193v4.22a3.136,3.136,0,0,1,1.149-1,3.53,3.53,0,0,1,1.67-.383,3.136,3.136,0,0,1,2.485,1.051" transform="translate(-28.31 -7.866)" fill="#fff"/>
      <path id="Path_784" data-name="Path 784" d="M86.769,26.558H80.723a1.689,1.689,0,0,0,.416,1.116,1.27,1.27,0,0,0,.937.366,1.173,1.173,0,0,0,1.14-.717h3.406A4,4,0,0,1,85.8,29.01a4.242,4.242,0,0,1-1.539,1.165,4.89,4.89,0,0,1-2.053.424,4.963,4.963,0,0,1-2.4-.57A4.1,4.1,0,0,1,78.157,28.4a5.544,5.544,0,0,1-.008-4.978A4.058,4.058,0,0,1,79.787,21.8a5.435,5.435,0,0,1,4.814-.016,3.978,3.978,0,0,1,1.629,1.588,4.852,4.852,0,0,1,.587,2.436,5.774,5.774,0,0,1-.048.749m-3.21-1.548a1.147,1.147,0,0,0-.391-.921,1.456,1.456,0,0,0-.978-.333,1.439,1.439,0,0,0-.962.317,1.549,1.549,0,0,0-.489.937Z" transform="translate(-39.196 -10.729)" fill="#fff"/>
      <path id="Path_785" data-name="Path 785" d="M98.366,20.567a3.885,3.885,0,0,1,1.41-1.629,3.627,3.627,0,0,1,1.988-.57,3.305,3.305,0,0,1,1.572.367,2.752,2.752,0,0,1,1.083,1V15.565h3.21V27.622h-3.21V26.351a2.713,2.713,0,0,1-1.059,1.011,3.311,3.311,0,0,1-1.614.374,3.585,3.585,0,0,1-1.98-.57,3.889,3.889,0,0,1-1.4-1.637,5.677,5.677,0,0,1-.513-2.485,5.624,5.624,0,0,1,.513-2.476m5.589,1.092a1.653,1.653,0,0,0-2.371-.008,1.942,1.942,0,0,0-.472,1.393,1.977,1.977,0,0,0,.472,1.393,1.548,1.548,0,0,0,1.19.513,1.565,1.565,0,0,0,1.181-.506,1.951,1.951,0,0,0,.48-1.4,1.928,1.928,0,0,0-.48-1.385" transform="translate(-49.45 -7.866)" fill="#fff"/>
      <path id="Path_786" data-name="Path 786" d="M125.8,21.752a3.164,3.164,0,0,1,1.646-.456V24.7h-.9a2.436,2.436,0,0,0-1.548.408,1.726,1.726,0,0,0-.505,1.417v3.992h-3.193V21.377H124.5V22.99a4.149,4.149,0,0,1,1.3-1.238" transform="translate(-61.302 -10.762)" fill="#fff"/>
      <path id="Path_787" data-name="Path 787" d="M135.488,23.43a3.905,3.905,0,0,1,1.4-1.629,3.589,3.589,0,0,1,1.98-.57,3.343,3.343,0,0,1,1.629.375,2.717,2.717,0,0,1,1.059,1.01V21.344h3.193v9.14h-3.193V29.214a2.7,2.7,0,0,1-1.067,1.011,3.357,3.357,0,0,1-1.621.374,3.585,3.585,0,0,1-1.98-.57,3.889,3.889,0,0,1-1.4-1.637,6.255,6.255,0,0,1,0-4.961m5.589,1.092a1.653,1.653,0,0,0-2.371-.008,1.942,1.942,0,0,0-.472,1.393,1.977,1.977,0,0,0,.472,1.393,1.548,1.548,0,0,0,1.19.513,1.565,1.565,0,0,0,1.181-.506,1.951,1.951,0,0,0,.48-1.4,1.928,1.928,0,0,0-.48-1.385" transform="translate(-68.21 -10.729)" fill="#fff"/>
      <path id="Path_788" data-name="Path 788" d="M158.346,19.3a5.087,5.087,0,0,1,2.012-2.069,5.961,5.961,0,0,1,3-.741,5.685,5.685,0,0,1,3.617,1.149,5.211,5.211,0,0,1,1.89,3.12h-3.437a2.3,2.3,0,0,0-.856-.994,2.327,2.327,0,0,0-1.262-.342,2.185,2.185,0,0,0-1.768.79,3.184,3.184,0,0,0-.66,2.11,3.21,3.21,0,0,0,.66,2.126,2.185,2.185,0,0,0,1.768.79,2.327,2.327,0,0,0,1.262-.342,2.3,2.3,0,0,0,.856-.994h3.437a5.207,5.207,0,0,1-1.89,3.12,5.685,5.685,0,0,1-3.617,1.149,5.961,5.961,0,0,1-3-.741,5.085,5.085,0,0,1-2.012-2.07,6.352,6.352,0,0,1-.709-3.039,6.321,6.321,0,0,1,.709-3.022" transform="translate(-79.662 -8.331)" fill="#fff"/>
      <path id="Path_789" data-name="Path 789" d="M184.663,30.028a4.2,4.2,0,0,1-1.7-1.629,4.843,4.843,0,0,1-.619-2.493,4.765,4.765,0,0,1,.627-2.476,4.251,4.251,0,0,1,1.711-1.629,5.556,5.556,0,0,1,4.9,0,4.26,4.26,0,0,1,1.711,1.629,5.219,5.219,0,0,1,0,4.961,4.231,4.231,0,0,1-1.719,1.637,5.573,5.573,0,0,1-4.912,0m3.568-2.7a2.057,2.057,0,0,0,.448-1.426,2.026,2.026,0,0,0-.448-1.417,1.434,1.434,0,0,0-1.1-.489,1.408,1.408,0,0,0-1.091.489,2.05,2.05,0,0,0-.44,1.417,2.132,2.132,0,0,0,.424,1.434,1.377,1.377,0,0,0,1.091.489,1.44,1.44,0,0,0,1.116-.5" transform="translate(-92.146 -10.729)" fill="#fff"/>
      <path id="Path_790" data-name="Path 790" d="M203.8,20.567a3.885,3.885,0,0,1,1.41-1.629,3.627,3.627,0,0,1,1.988-.57,3.3,3.3,0,0,1,1.572.367,2.752,2.752,0,0,1,1.083,1V15.565h3.21V27.622h-3.21V26.351a2.713,2.713,0,0,1-1.059,1.011,3.311,3.311,0,0,1-1.614.374,3.585,3.585,0,0,1-1.98-.57,3.889,3.889,0,0,1-1.4-1.637,5.677,5.677,0,0,1-.513-2.485,5.624,5.624,0,0,1,.513-2.476m5.589,1.092a1.653,1.653,0,0,0-2.371-.008,1.942,1.942,0,0,0-.472,1.393,1.977,1.977,0,0,0,.472,1.393,1.548,1.548,0,0,0,1.19.513,1.565,1.565,0,0,0,1.181-.506,1.951,1.951,0,0,0,.48-1.4,1.928,1.928,0,0,0-.48-1.385" transform="translate(-102.733 -7.866)" fill="#fff"/>
      <path id="Path_791" data-name="Path 791" d="M234.894,26.558H228.85a1.681,1.681,0,0,0,.416,1.116,1.27,1.27,0,0,0,.937.366,1.172,1.172,0,0,0,1.14-.717h3.406a3.984,3.984,0,0,1-.823,1.686,4.238,4.238,0,0,1-1.539,1.165,4.889,4.889,0,0,1-2.053.424,4.961,4.961,0,0,1-2.4-.57,4.1,4.1,0,0,1-1.646-1.629,5.539,5.539,0,0,1-.008-4.978,4.057,4.057,0,0,1,1.637-1.621,5.436,5.436,0,0,1,4.815-.016,3.99,3.99,0,0,1,1.629,1.588,4.857,4.857,0,0,1,.587,2.436,5.776,5.776,0,0,1-.049.749m-3.21-1.548a1.147,1.147,0,0,0-.391-.921,1.453,1.453,0,0,0-.977-.333,1.438,1.438,0,0,0-.962.317,1.546,1.546,0,0,0-.489.937Z" transform="translate(-114.052 -10.729)" fill="#fff"/>
      <path id="Path_792" data-name="Path 792" d="M251.53,21.752a3.164,3.164,0,0,1,1.646-.456V24.7h-.9a2.436,2.436,0,0,0-1.548.408,1.726,1.726,0,0,0-.505,1.417v3.992h-3.193V21.377h3.193V22.99a4.149,4.149,0,0,1,1.3-1.238" transform="translate(-124.838 -10.762)" fill="#fff"/>
      <path id="Path_793" data-name="Path 793" d="M287.442,35.31l-6.578-8.28h11.071l-4.493,8.28" transform="translate(-141.935 -13.66)" fill="#fff"/>
      <path id="Path_794" data-name="Path 794" d="M291.732,17.734H280.579l4.231-7.6,6.922,7.6" transform="translate(-141.791 -5.12)" fill="#fff"/>
      <path id="Path_795" data-name="Path 795" d="M283.367,36.045l-9.338-1.382,2.722-6.945,6.616,8.327" transform="translate(-138.481 -14.007)" fill="#fff"/>
      <path id="Path_796" data-name="Path 796" d="M274.012,17.343l-4.882-2.167,9.18-5.639.032.023-4.33,7.782" transform="translate(-136.005 -4.82)" fill="#fff"/>
      <path id="Path_797" data-name="Path 797" d="M273.308,24.4l-2.777,7.085H270.5c-.714-3.086-1.428-6.172-2.147-9.285l4.957,2.2" transform="translate(-135.611 -11.219)" fill="#fff"/>
    </g>
  </g>
</svg>
